<svg width="43" height="43" viewBox="0 0 43 43" fill="none" xmlns="http://www.w3.org/2000/svg">
<g id="celtic blue - corporate logos/Jamf icon greyscal white">
<path id="mark lower" fill-rule="evenodd" clip-rule="evenodd" d="M33.6301 6.96338C28.1101 6.96338 24.8483 9.28815 23.3621 14.2769C23.3651 14.267 19.5173 26.1584 19.5173 26.1584C18.1078 30.0639 15.8387 31.6724 11.6965 31.6724H2.19446C0.981835 31.6724 0 32.6552 0 33.8669V39.927C0 41.0869 0.93906 42.0259 2.09896 42.0259H40.6661C41.8757 42.0259 42.8566 41.0461 42.8566 39.8365V9.07527C42.8566 7.90841 41.9105 6.96338 40.7447 6.96338H33.6301Z" fill="white"/>
<path id="mark upper" fill-rule="evenodd" clip-rule="evenodd" d="M2.34566 0C1.05047 0 0 1.05047 0 2.34566V18.5663C0 19.8287 1.02362 20.8533 2.28598 20.8533H10.461C14.2033 20.8533 19.3403 20.0844 20.7518 13.4393C20.7528 13.4383 22.1535 6.78531 22.9841 2.84106C23.2935 1.37477 22.1734 0 20.6752 0H2.34566Z" fill="white"/>
</g>
</svg>
